PathFileType	4	(X/Y/Z)	S01_0017_Gait_markers.trc
DataRate	CameraRate	NumFrames	NumMarkers	Units	OrigDataRate	OrigDataStartFrame	OrigNumFrames
250.000000	250.000000	4	54	mm	250.000000	273	364
Frame#	Time	HEAD_ANT			R_HEAD			L_HEAD			C7			R_BACK			L_BACK			STERNUM			R_ACROMION			R_HUM_PROX			R_HUM_ANT			R_HUM_POST			R_ELBOW_LAT			R_ELBOW_MED			R_FOREARM			R_WIRST_LAT			R_WRITS_MED			R_HAND			L_ACROMION			L_HUM_PROX			L_HUM_ANT			L_HUM_POST			L_ELBOW_LAT			L_ELBOW_MED			L_FOREARM			L_WRIST_LAT			L_WIRST_MED			L_HAND			R_ILIAC			SACRUM			L_ILIAC			R_GTROCH			R_THIGH__1			R_THIGH_2			R_THIGH_3			R_THIGH_4			R_SHANK_1			R_SHANK_2			R_SHANK_3			R_SHANK_4			R_HEEL			R_FOOT_LAT			R_FOOT_MED			L_GTROCH			L_THIGH_1			L_THIGH_2			L_THIGH_3			L_THIGH_4			L_SHANK_1			L_SHANK_2			L_SHANK_3			L_SHANK_4			L_HEEL			L_FOOT_LAT			L_FOOT_MED			
		X1	Y1	Z1	X2	Y2	Z2	X3	Y3	Z3	X4	Y4	Z4	X5	Y5	Z5	X6	Y6	Z6	X7	Y7	Z7	X8	Y8	Z8	X9	Y9	Z9	X10	Y10	Z10	X11	Y11	Z11	X12	Y12	Z12	X13	Y13	Z13	X14	Y14	Z14	X15	Y15	Z15	X16	Y16	Z16	X17	Y17	Z17	X18	Y18	Z18	X19	Y19	Z19	X20	Y20	Z20	X21	Y21	Z21	X22	Y22	Z22	X23	Y23	Z23	X24	Y24	Z24	X25	Y25	Z25	X26	Y26	Z26	X27	Y27	Z27	X28	Y28	Z28	X29	Y29	Z29	X30	Y30	Z30	X31	Y31	Z31	X32	Y32	Z32	X33	Y33	Z33	X34	Y34	Z34	X35	Y35	Z35	X36	Y36	Z36	X37	Y37	Z37	X38	Y38	Z38	X39	Y39	Z39	X40	Y40	Z40	X41	Y41	Z41	X42	Y42	Z42	X43	Y43	Z43	X44	Y44	Z44	X45	Y45	Z45	X46	Y46	Z46	X47	Y47	Z47	X48	Y48	Z48	X49	Y49	Z49	X50	Y50	Z50	X51	Y51	Z51	X52	Y52	Z52	X53	Y53	Z53	X54	Y54	Z54	

274	1.092	1531.5595703125	1742.277954101562	-382.5439758300777	1469.733764648438	1692.2353515625	-307.0962219238277	1473.905151367188	1693.412475585938	-453.876556396484	1333.097778320312	1522.208740234375	-387.9821472167965	1257.320190429688	1324.79541015625	-323.7182006835935	1266.6181640625	1326.917602539062	-462.4078979492185	1510.646240234375	1361.004272460938	-371.4382324218747	1395.408813476562	1477.161499023438	-208.7678527832028	1338.445678710938	1319.541625976562	-120.6936874389645	1393.436767578125	1230.673583984375	-107.5433578491208	1272.956420898438	1240.074584960938	-116.9371871948239	1312.344848632812	1131.597412109375	-101.941467285156	1304.879638671875	1126.343139648438	-183.0281982421872	1401.569702148438	944.5507202148438	-82.07812499999979	1444.487426757812	877.2389526367188	-113.449378967285	1370.055908203125	857.0492553710938	-86.537643432617	1434.854736328125	792.049560546875	-54.0440139770506	1424.411987304688	1476.542846679688	-547.6682739257809	1409.917602539062	1307.7861328125	-642.0610351562497	1473.114990234375	1228.774536132813	-633.4942626953123	1354.521606445312	1228.519165039063	-669.5590209960935	1415.290893554688	1125.233032226563	-669.7904663085935	1359.319580078125	1118.180908203125	-615.6114501953123	1537.252807617188	964.8661499023439	-628.117492675781	1568.932739257812	912.0869750976564	-568.7319335937498	1534.730224609375	879.9028320312501	-631.9161987304685	1616.444946289062	836.5311889648439	-606.8789062499998	1406.133422851562	1074.345581054688	-205.2494049072263	1276.158935546875	1051.06591796875	-372.6012268066404	1398.863891601562	1068.032958984375	-550.5833740234373	1369.036865234375	922.9959716796875	-187.2336425781248	1491.384521484375	655.1649169921875	-208.2893066406249	1540.829711914062	686.86865234375	-203.8618164062499	1574.361694335938	589.77880859375	-237.3200683593749	1510.771362304688	577.6285400390625	-229.1547088623045	1528.33154296875	362.0279846191407	-218.4342956542968	1584.350341796875	344.9102172851563	-234.7830810546874	1585.207763671875	259.7066040039063	-248.6339111328124	1521.774047851562	261.5679016113282	-236.3636932373046	1496.54150390625	46.51672363281257	-314.2577209472656	1661.591674804688	32.93888854980474	-236.1145172119141	1708.288452148438	51.12261581420906	-325.629150390625	1351.5146484375	961.1033935546876	-552.4536132812498	1379.166870117188	665.6999511718751	-525.4902954101561	1330.677612304688	695.5083007812501	-538.9954223632811	1297.796142578125	601.0324707031251	-503.4716796874999	1360.594970703125	590.4251098632814	-498.8801879882811	1264.485107421875	333.6063232421876	-477.5925598144531	1204.430419921875	322.1404113769532	-475.2731628417968	1188.319091796875	238.9270935058595	-453.1068115234374	1252.393310546875	234.4471893310548	-449.4674682617187	1123.543334960938	62.02470016479501	-370.7290649414062	1294.827514648438	19.13874244689951	-445.3792114257812	1333.276245117188	30.39457702636726	-340.2982482910156	
275	1.096	1536.853637695312	1741.387939453125	-382.1986694335934	1475.056518554688	1691.312255859375	-306.7233276367184	1479.31494140625	1692.495239257812	-453.6260375976559	1338.417724609375	1521.281005859375	-387.9188232421872	1262.381713867188	1323.957275390625	-323.7617187499997	1271.415283203125	1326.347900390625	-462.5027160644528	1515.821044921875	1360.140747070312	-371.2155151367185	1400.53662109375	1476.082153320312	-208.6377258300778	1343.453002929688	1318.443481445312	-120.8806991577145	1398.51025390625	1229.542114257812	-107.5817718505857	1277.888793945312	1239.127197265625	-117.170715332031	1317.466796875	1130.544677734375	-102.128364562988	1307.423828125	1125.725219726562	-184.2454681396482	1406.688720703125	943.379150390625	-82.17218017578104	1449.644653320312	876.197509765625	-113.5881576538084	1375.726440429688	855.459228515625	-87.67443084716778	1439.955444335938	790.9762573242188	-54.13002395629865	1429.767822265625	1475.798828125	-547.5541381835934	1415.696899414062	1307.073120117188	-642.1336669921872	1478.738037109375	1227.806640625	-633.7294311523435	1360.424926757812	1228.1298828125	-669.8710327148435	1421.177490234375	1124.473754882813	-670.1185302734373	1365.406494140625	1117.199951171875	-615.8214721679685	1543.28662109375	964.3139648437501	-628.051574707031	1575.0810546875	911.6165771484376	-568.6911621093748	1540.902587890625	879.3712768554689	-631.9010009765623	1622.866577148438	836.1213989257814	-606.746887207031	1411.359130859375	1073.47216796875	-205.2604370117185	1281.35888671875	1050.28662109375	-372.5318908691404	1404.48779296875	1067.079345703125	-550.5659179687498	1374.155395507812	921.8809814453125	-187.5641021728514	1496.136962890625	654.2594604492188	-208.4349822998045	1545.601806640625	685.781982421875	-204.3128051757811	1579.41455078125	588.9892578125	-237.780319213867	1515.755615234375	576.9189453125	-229.4603881835936	1537.078369140625	360.8757324218751	-219.1128540039062	1593.651245117188	344.9574890136719	-235.4089050292968	1596.658569335938	259.8941040039063	-250.0434875488281	1533.107299804688	260.6904907226563	-236.9247741699218	1512.4951171875	44.9925727844239	-316.4393615722656	1677.589477539062	33.92458343505864	-237.022705078125	1724.2607421875	52.85047912597663	-326.5656433105469	1356.344848632812	960.5523681640626	-552.4283447265623	1382.1787109375	665.8934936523439	-525.5957641601561	1333.721801757812	695.8741455078126	-539.3211669921874	1300.177612304688	601.0084228515626	-503.6273498535155	1363.033935546875	590.1182250976564	-499.5137634277343	1265.447143554688	333.6893920898439	-477.7319335937499	1205.405151367188	322.653045654297	-475.3255615234374	1189	239.3400878906251	-453.0135498046874	1253.019775390625	234.6614074707032	-449.5473327636718	1123.755859375	62.60225296020516	-370.688232421875	1294.76806640625	19.15871238708506	-445.3238525390625	1333.36767578125	30.42535018920906	-340.3616333007812	
276	1.1	1542.2197265625	1740.451538085938	-381.889495849609	1480.430053710938	1690.384643554688	-306.4352111816402	1484.550659179688	1691.623413085938	-453.3793640136715	1343.70166015625	1520.30615234375	-387.8083190917965	1267.595336914062	1323.122192382812	-324.0041503906247	1276.703979492188	1325.70947265625	-462.8622741699216	1521.0263671875	1358.904907226562	-371.0787353515622	1405.683349609375	1475.130615234375	-208.6216430664059	1348.484130859375	1317.346557617188	-120.8454742431638	1403.592041015625	1228.552978515625	-107.680854797363	1283.0009765625	1237.940307617188	-117.4936218261716	1322.973999023438	1129.328002929688	-102.3505401611326	1315.321044921875	1124.255126953125	-183.5551910400388	1411.85302734375	942.3428344726562	-82.26435089111307	1454.85595703125	875.098876953125	-113.7707138061521	1381.063842773438	854.439453125	-87.98132324218732	1445.150634765625	789.7969360351562	-54.28798294067365	1435.443603515625	1474.977661132813	-547.3898315429684	1421.266845703125	1306.348388671875	-642.0690917968747	1484.546752929688	1226.91650390625	-633.7728881835935	1366.085205078125	1227.219604492188	-669.7770996093748	1427.026977539062	1123.731567382813	-670.2350463867185	1371.060791015625	1116.393676757813	-615.9188842773435	1549.47265625	963.6466674804689	-628.0225830078123	1581.088623046875	911.0599975585939	-568.4556884765623	1547.059326171875	879.3139648437501	-632.5916748046873	1628.922485351562	835.6238403320314	-606.5094604492185	1416.528564453125	1072.548706054688	-205.3081207275388	1286.674194335938	1049.533081054688	-372.6855163574216	1409.797729492188	1066.155395507813	-550.4628295898435	1379.264404296875	920.7340698242188	-187.873336791992	1501.098510742188	653.0533447265625	-209.0322418212889	1550.377319335938	684.7573852539062	-204.7738037109374	1584.507934570312	588.0540771484375	-238.0602722167967	1520.308715820312	575.3377685546875	-230.156280517578	1546.119750976562	359.8787536621094	-219.753204345703	1602.789184570312	345.0612792968751	-236.0465698242187	1607.6552734375	260.1740417480469	-250.6313476562499	1544.185424804688	259.4925231933594	-237.9523468017578	1528.2587890625	43.79188537597663	-317.9556884765625	1693.326782226562	34.76440048217778	-238.0674285888672	1739.98095703125	55.11278152465827	-327.376953125	1361.07861328125	959.8800048828126	-552.4898681640623	1385.193237304688	665.2647705078126	-525.6737670898436	1336.758911132812	695.7113647460939	-539.2803344726561	1302.81884765625	600.9265747070314	-503.7318115234374	1365.578247070312	589.2639770507814	-498.8724975585936	1266.69140625	333.8265075683595	-477.9168701171874	1206.448974609375	322.9696655273439	-475.1538696289062	1189.65478515625	239.7182617187501	-452.8984374999999	1253.631225585938	234.9152679443361	-449.6584167480468	1124.41943359375	63.18383026123055	-369.5435180664062	1294.694702148438	19.1267204284669	-445.3143005371094	1333.445068359375	30.45488357543953	-340.4207458496094	
277	1.104	1547.58642578125	1739.40625	-381.6341552734371	1485.708740234375	1689.200561523438	-306.2534179687496	1490.015380859375	1690.66357421875	-453.0066528320309	1349.027221679688	1519.54736328125	-387.6803283691403	1274.033447265625	1322.46044921875	-324.0267639160153	1282.283325195312	1324.7197265625	-463.0783996582028	1526.332397460938	1357.900756835938	-371.1442565917966	1410.859741210938	1474.001342773438	-208.5563659667965	1353.59716796875	1316.238403320312	-120.9250946044919	1408.689331054688	1227.386596679688	-107.6570816040036	1288.201416015625	1236.752563476562	-117.6731491088864	1328.073608398438	1128.07568359375	-102.5465164184568	1317.39990234375	1123.74365234375	-184.8396148681638	1417.042602539062	941.1611328125	-82.4157257080076	1460.005737304688	873.8650512695312	-113.7145462036131	1386.247192382812	853.3255004882812	-88.16572570800763	1450.389282226562	788.64208984375	-54.48092269897443	1440.837768554688	1473.9912109375	-547.2427978515622	1427.044799804688	1305.613647460938	-642.0169067382809	1490.300659179688	1226.276123046875	-633.8814697265623	1371.869384765625	1226.411987304688	-669.8400268554685	1432.916381835938	1123.027099609375	-670.3587646484373	1376.835083007812	1115.488525390625	-616.054260253906	1555.495849609375	963.0191040039064	-627.9824218749998	1587.017822265625	910.4109497070314	-568.4122314453123	1553.339965820312	878.2192993164064	-631.784240722656	1635.096069335938	835.0850830078126	-606.342102050781	1421.451904296875	1071.555908203125	-205.4199218749998	1291.899291992188	1048.645385742188	-372.5174255371091	1415.371459960938	1065.364013671875	-550.3976440429685	1384.221557617188	919.7421264648438	-188.0826568603514	1505.7734375	651.9581909179688	-209.6357421874999	1555.082885742188	683.88330078125	-204.617721557617	1589.125854492188	587.08349609375	-238.7505035400389	1525.258666992188	574.2540893554688	-230.7008972167968	1554.492065429688	358.5978698730469	-220.6492309570312	1611.8779296875	345.4927673339844	-236.4680023193359	1618.387939453125	260.3450317382813	-251.5254669189453	1555.068725585938	257.3518981933594	-239.7996520996093	1544.010131835938	42.71285629272468	-319.6322631835938	1709.162475585938	36.12047958374028	-239.0216522216797	1755.559936523438	57.68600463867195	-328.3326721191406	1366.0927734375	959.2810668945314	-552.5976562499998	1388.29248046875	664.9631347656251	-525.9144897460936	1339.766967773438	695.5361938476564	-539.5224609374999	1305.472045898438	600.9105834960939	-504.000274658203	1367.977416992188	588.9747924804689	-499.2567138671874	1267.719482421875	333.5876464843751	-477.6951904296874	1207.669677734375	323.3314208984376	-475.1463317871093	1190.43359375	240.2207489013673	-453.0251770019531	1254.308837890625	235.0576171875001	-449.7616577148437	1124.667846679688	64.00722503662118	-369.3874206542969	1294.630493164062	19.16460227966319	-445.2715759277344	1333.519775390625	30.48493957519539	-340.4924621582031	
